<mxfile host="app.diagrams.net" modified="2023-01-25T16:48:15.117Z" agent="5.0 (Windows NT 10.0; Win64; x64) AppleWebKit/537.36 (KHTML, like Gecko) Chrome/109.0.0.0 Safari/537.36" etag="nW2x-a6-Dv0Y2Mg7tvzZ" version="20.8.10" type="github">
  <diagram name="Page-1" id="z48lZg58AhBbjeFEezPb">
    <mxGraphModel dx="1050" dy="483" grid="1" gridSize="10" guides="1" tooltips="1" connect="1" arrows="1" fold="1" page="1" pageScale="1" pageWidth="827" pageHeight="1169" math="0" shadow="0">
      <root>
        <mxCell id="0" />
        <mxCell id="1" parent="0" />
        <mxCell id="gmFjkNFE5XuEMYZ9CMIm-5" value="" style="line;strokeWidth=2;html=1;" vertex="1" parent="1">
          <mxGeometry x="70" y="184" width="370" height="10" as="geometry" />
        </mxCell>
        <mxCell id="gmFjkNFE5XuEMYZ9CMIm-7" style="rounded=0;orthogonalLoop=1;jettySize=auto;html=1;entryX=0.685;entryY=0.68;entryDx=0;entryDy=0;entryPerimeter=0;endArrow=none;endFill=0;jumpStyle=sharp;" edge="1" parent="1">
          <mxGeometry relative="1" as="geometry">
            <mxPoint x="259" y="231" as="sourcePoint" />
            <mxPoint x="259.45000000000005" y="190.79999999999995" as="targetPoint" />
          </mxGeometry>
        </mxCell>
        <mxCell id="gmFjkNFE5XuEMYZ9CMIm-6" value="" style="rounded=1;whiteSpace=wrap;html=1;" vertex="1" parent="1">
          <mxGeometry x="208" y="231" width="120" height="60" as="geometry" />
        </mxCell>
        <mxCell id="gmFjkNFE5XuEMYZ9CMIm-8" value="" style="rounded=1;whiteSpace=wrap;html=1;fillOpacity=100;imageWidth=24;" vertex="1" parent="1">
          <mxGeometry x="130" y="310" width="120" height="60" as="geometry" />
        </mxCell>
        <mxCell id="gmFjkNFE5XuEMYZ9CMIm-9" value="" style="rounded=1;whiteSpace=wrap;html=1;" vertex="1" parent="1">
          <mxGeometry x="520" y="90" width="120" height="60" as="geometry" />
        </mxCell>
        <mxCell id="gmFjkNFE5XuEMYZ9CMIm-10" value="" style="rounded=1;whiteSpace=wrap;html=1;" vertex="1" parent="1">
          <mxGeometry x="361" y="90" width="120" height="60" as="geometry" />
        </mxCell>
        <mxCell id="gmFjkNFE5XuEMYZ9CMIm-11" value="" style="rounded=1;whiteSpace=wrap;html=1;" vertex="1" parent="1">
          <mxGeometry x="198" y="90" width="120" height="60" as="geometry" />
        </mxCell>
        <mxCell id="gmFjkNFE5XuEMYZ9CMIm-12" value="" style="rounded=1;whiteSpace=wrap;html=1;" vertex="1" parent="1">
          <mxGeometry x="40" y="90" width="120" height="60" as="geometry" />
        </mxCell>
        <mxCell id="gmFjkNFE5XuEMYZ9CMIm-14" value="" style="rounded=1;whiteSpace=wrap;html=1;" vertex="1" parent="1">
          <mxGeometry x="321" y="290" width="120" height="60" as="geometry" />
        </mxCell>
        <mxCell id="gmFjkNFE5XuEMYZ9CMIm-15" value="" style="rounded=1;whiteSpace=wrap;html=1;" vertex="1" parent="1">
          <mxGeometry x="331" y="300" width="120" height="60" as="geometry" />
        </mxCell>
        <mxCell id="gmFjkNFE5XuEMYZ9CMIm-16" value="" style="rounded=1;whiteSpace=wrap;html=1;" vertex="1" parent="1">
          <mxGeometry x="520" y="220" width="120" height="60" as="geometry" />
        </mxCell>
        <mxCell id="gmFjkNFE5XuEMYZ9CMIm-17" value="" style="rounded=1;whiteSpace=wrap;html=1;" vertex="1" parent="1">
          <mxGeometry x="40" y="210" width="120" height="60" as="geometry" />
        </mxCell>
      </root>
    </mxGraphModel>
  </diagram>
</mxfile>
